<svg id="visual" viewBox="0 0 960 540" width="960" height="540" xmlns="http://www.w3.org/2000/svg" xmlns:xlink="http://www.w3.org/1999/xlink" version="1.1">
  <defs>
    <linearGradient id="grad1_0" x1="43.8%" y1="0%" x2="00%" y2="100%">
      <stop offset="14.444444444444446%" stop-color="#0c34qd" stop-opacity="1"></stop>
      <stop offset="85.55555555555554%" stop-color="#0c343d" stop-opacity="1"></stop>
    </linearGradient>
  </defs>
  <defs>
    <linearGradient id="grad1_1" x1="43.8%" y1="0%" x2="100%" y2="100%">
      <stop offset="14.444444444444446%" stop-color="#0c343d" stop-opacity="1"></stop>
      <stop offset="85.55555555555554%" stop-color="#ffffff" stop-opacity="1"></stop>
    </linearGradient>
  </defs>
  <defs>
    <linearGradient id="grad2_0" x1="0%" y1="0%" x2="56.3%" y2="100%">
      <stop offset="14.444444444444446%" stop-color="#0c343d" stop-opacity="1"></stop>
      <stop offset="85.55555555555554%" stop-color="#0c343d" stop-opacity="1"></stop>
    </linearGradient>
  </defs>
  <defs>
    <linearGradient id="grad2_1" x1="0%" y1="0%" x2="56.3%" y2="100%">
      <stop offset="14.444444444444446%" stop-color="#ffffff" stop-opacity="1"></stop>
      <stop offset="85.55555555555554%" stop-color="#0c343d" stop-opacity="1"></stop>
    </linearGradient>
  </defs>
  <g transform="translate(960, 0)">
    <path d="M0 378C-70.5 370.7 -141 363.3 -189 327.4C-237 291.4 -262.4 226.8 -290.1 167.5C-317.9 108.2 -347.9 54.1 -378 0L0 0Z" fill="#829398"></path>
    <path d="M0 189C-35.3 185.3 -70.5 181.7 -94.5 163.7C-118.5 145.7 -131.2 113.4 -145.1 83.8C-158.9 54.1 -174 27 -189 0L0 0Z" fill="#0c343d"></path>
  </g>
  <g transform="translate(0, 540)">
    <path d="M0 -378C48.5 -338.2 97 -298.5 157 -271.9C217 -245.4 288.6 -232.1 327.4 -189C366.1 -145.9 372.1 -72.9 378 0L0 0Z" fill="#829398"></path>
    <path d="M0 -189C24.2 -169.1 48.5 -149.2 78.5 -136C108.5 -122.7 144.3 -116.1 163.7 -94.5C183.1 -72.9 186 -36.5 189 0L0 0Z" fill="#0c343d"></path>
  </g>
</svg>
